<svg version="1.1" xmlns="http://www.w3.org/2000/svg" style="display: block;" viewBox="0 0 2048 2048" width="1000" height="1000" preserveAspectRatio="none">
<path transform="translate(0,0)" fill="rgb(79,44,24)" d="M 1004.41 0 L 1045.32 0 C 1051.37 2.1985 1057.23 1.99695 1063.57 3.02715 C 1075.77 5.00956 1087.97 6.97567 1099.89 10.3808 C 1170.37 31.1226 1229.71 79.0462 1264.82 143.585 C 1266.07 145.905 1267.38 148.327 1268.55 150.681 C 1311.33 133.239 1381.48 137.945 1423.3 156.549 C 1479.25 181.437 1517.21 220.189 1540.07 276.306 C 1561.06 328.146 1560.74 386.179 1539.17 437.784 C 1516.82 490.133 1475.42 532.265 1422.5 554.561 C 1408.25 560.569 1391.14 564.241 1376.41 569.048 L 1376.14 671.939 C 1376.07 686.963 1375.14 711.942 1376.08 726.373 C 1403.57 749.331 1426.81 764.071 1452.58 791.888 C 1476.13 784.025 1492.48 779.492 1517.02 777.58 C 1652.96 766.988 1698.74 927.082 1611.56 1015.34 C 1605.89 1021.08 1600.3 1025.57 1593.71 1030.1 C 1599.31 1044.1 1601.74 1061.79 1604.77 1076.63 C 1613.32 1118.49 1610.79 1159.05 1610.76 1201.35 C 1611.63 1234.22 1610.58 1267.31 1611.57 1300.21 C 1611.88 1310.51 1610.44 1325.12 1611.3 1334.67 C 1664.72 1355.62 1714.49 1380.63 1761.02 1414.54 C 1768.65 1420.1 1792.3 1433.54 1787.75 1444.89 C 1785.13 1447.06 1785.28 1447.3 1782.01 1447.87 C 1773.3 1446.02 1760.24 1434.69 1752.09 1429.59 C 1706.81 1401.27 1660.03 1381.95 1611.03 1361.62 C 1611.28 1373.94 1611.85 1387.28 1611.22 1399.52 C 1612.56 1420.71 1612.06 1444.6 1611.97 1466 C 1620.41 1471.19 1629.02 1476.26 1637.15 1481.93 C 1652.71 1492.78 1729.06 1549.94 1732.13 1563.95 C 1732.67 1566.37 1732.61 1569.35 1731.23 1571.52 C 1729.78 1573.81 1728.51 1573.88 1726.11 1574.24 C 1719.06 1571.5 1684.85 1542.94 1676.16 1536.45 C 1655.49 1521.04 1633.94 1506.86 1611.62 1493.97 C 1614.19 1521.67 1614.25 1548.71 1613.71 1576.51 C 1613.31 1596.95 1617.6 1619.92 1603.21 1636.49 C 1615.28 1652.25 1628.52 1669.49 1638.68 1686.68 C 1642.93 1693.88 1640.78 1703.36 1631.16 1701.14 C 1623.64 1692.32 1616.27 1683.05 1608.92 1674.05 C 1605.17 1669.46 1597.73 1661.82 1594.62 1657.49 L 1593.74 1658.59 C 1585.44 1668.97 1579.08 1680.72 1571.26 1691.27 C 1472.52 1824.36 1321.21 1922.62 1171.71 1989.99 C 1140.23 2004.19 1108.3 2017.39 1075.98 2029.56 C 1064.54 2033.88 1053.06 2038.1 1041.54 2042.2 C 1039.02 2043.1 1027.61 2046.92 1025.71 2048 L 1024.18 2048 L 1023.09 2044.98 C 1003.71 2015.62 993.558 1995.83 967.788 1969.16 C 909.287 1908.62 828.766 1879.36 764.144 1826.09 C 753.681 1817.46 740.962 1807.23 731.936 1797.32 C 733.518 1815.52 735.334 1856.22 735.108 1874.15 C 715.261 1865.55 689.56 1854.15 670.635 1843.67 C 570.056 1788.61 489.865 1702.64 441.915 1598.49 C 430.852 1574.35 422.703 1549.24 415.176 1523.82 C 413.383 1517.77 411.929 1511.57 409.179 1505.86 C 405.68 1515.64 395.531 1531.91 390.25 1541.85 C 383.63 1554.3 376.735 1568.13 369.583 1580.04 C 346.3 1543.84 321.486 1482.35 309.754 1440.48 C 286.603 1357.87 288.957 1270.33 310.715 1187.67 C 312.834 1179.61 319.673 1154.79 322.961 1148.92 C 305.956 1156.8 275.792 1167.66 257.37 1175.08 C 262.938 1153.39 265.275 1125.34 270.465 1101.63 C 283.707 1038.5 310.748 979.085 349.652 927.634 C 360.07 914.025 374.016 898.844 385.481 885.725 C 367.623 852.647 360.372 810.678 363.259 773.344 C 366.626 723.418 389.936 676.945 427.94 644.393 C 473.131 605.981 543.519 592.089 600.053 609.707 C 624.433 617.304 655.076 632.827 671.884 652.553 L 671.697 567.567 C 657.75 565.018 644.053 561.255 630.761 556.322 C 607.429 547.611 591.108 537.482 571.837 521.636 C 430.402 405.335 488.156 180.632 666.304 144.173 C 700.443 137.186 746.165 137.69 779.35 150.37 C 779.946 148.824 780.432 147.509 781.233 146.028 C 817.29 79.3903 876.444 31.6449 949.235 10.4273 C 959.89 7.34758 970.808 5.57241 981.737 3.84485 C 989.161 2.67144 997.323 2.38219 1004.41 0 z"/>
<path transform="translate(0,0)" fill="rgb(225,156,23)" d="M 672.002 773.494 C 774.565 719.2 910.272 706.437 1024.04 703.473 L 1024.43 709.211 C 1023.65 744.305 1024.62 780.238 1024.19 815.513 C 1023.89 815.469 1023.59 815.426 1023.28 815.383 C 1006.8 810.514 989.637 794.39 973.706 785.523 C 955.08 775.156 938.881 765.854 918.094 760.946 C 855.563 746.182 789.209 765.658 737.704 802.506 C 683.656 841.173 639.332 906.738 615.754 968.428 C 609.987 983.517 604.899 1010.04 601.294 1026.1 C 597.742 1041.93 597.66 1060.88 597.506 1077.1 C 597.413 1086.85 598.856 1101.34 596.84 1110.42 C 590.055 1109.21 584.922 1109.04 578.905 1112.84 C 566.762 1120.51 571.269 1138.41 573.377 1149.85 C 580.511 1188.57 598.478 1224.55 621.745 1256.03 C 645.229 1286.98 669.275 1312.98 685.945 1349.05 C 697.293 1373.6 701.669 1393.78 707.145 1419.79 C 715.141 1457.78 738.125 1489.98 770.207 1511.62 C 779.672 1518.01 790.104 1522.66 800.197 1528.24 C 799.229 1657.4 914.409 1696.36 1023.72 1697.03 L 1024.19 1698.19 L 1024.21 1894.9 C 1024.21 1905.13 1024.55 1960.61 1023.29 1965.87 C 958.206 1882.22 875.675 1857.54 794.676 1794.74 C 756.724 1765.31 730.634 1734.99 703.379 1696.28 C 690.811 1738.92 688.349 1759.46 689.22 1803.79 C 680.554 1798.82 672.061 1793.56 663.756 1788 C 557.118 1717.72 485.505 1622.03 452.901 1497.7 C 447.259 1475.67 442.549 1453.42 438.784 1431 C 436.888 1419.17 435.99 1406.17 433.56 1394.67 L 433.28 1393.4 C 419.477 1411.64 380.379 1464.3 372.71 1484.88 C 369.034 1477.33 365.573 1468.68 362.64 1460.75 C 330.059 1371 328.482 1272.92 358.162 1182.16 C 371.314 1141.32 384.326 1115.24 401.941 1076.87 C 369.519 1084.48 346.096 1093.02 315.579 1105.71 C 327.007 1038.01 367.308 972.62 412.334 922.134 C 435.055 946.172 447.281 953.975 476.689 969.133 C 473.645 980.417 463.895 1011.02 473.325 1019.02 L 475.162 1018.74 C 482.712 1011.45 491.321 990.951 496.017 981.183 C 519.254 932.851 547.84 886.855 585.781 848.637 C 592.046 842.327 608.12 830.719 611.553 823.604 L 610.78 821.583 C 600.534 813.898 576.055 810.277 563.232 809.528 C 587.155 780.74 614.004 775.99 649.047 768.243 L 640.316 756.692 C 649.818 747.737 659.689 742.131 668.726 733.708 C 670.741 729.649 670.328 726.707 670.361 722.16 C 671.253 725.822 671.459 764.477 672.002 773.494 z"/>
<path transform="translate(0,0)" fill="rgb(145,100,68)" d="M 1024.04 703.473 C 1048.79 704.471 1075.04 704.373 1099.54 706.213 C 1168.1 711.501 1237.49 721.723 1302.89 743.576 C 1318.34 748.74 1338.97 754.549 1351.94 764.233 C 1379.46 784.785 1405.64 806.704 1430.66 830.199 C 1432.8 831.796 1436.09 834.609 1438.76 835.008 C 1455.63 837.536 1476.01 829.915 1492.61 825.624 C 1543.21 812.544 1594.72 824.774 1608.45 881.862 C 1612.68 890.877 1612.95 908.496 1611.94 918.416 C 1609.41 943.108 1596.86 965.658 1579.95 983.42 C 1569.48 994.421 1556.89 1004.15 1551.14 1018.39 C 1549.48 1022.72 1550.01 1027.55 1549.85 1032.24 C 1552.44 1045.38 1556.71 1058.29 1559.41 1071.55 C 1566.34 1104.68 1569 1138.57 1567.33 1172.38 C 1567.14 1177.11 1566.89 1188.95 1566.18 1193.22 C 1562 1234.76 1554.71 1272.74 1539.21 1311.78 C 1495.33 1301.13 1450.39 1292.01 1405.35 1288.7 C 1399.15 1288.25 1384.09 1286.83 1378.4 1287.63 C 1373.42 1286.35 1372.4 1281.21 1368.51 1278.42 C 1346.56 1262.7 1343.59 1264.97 1338.27 1287.45 C 1335.85 1288.07 1336.62 1288.03 1334.15 1287.98 C 1331.77 1280.56 1315.33 1260.77 1309.33 1255.22 C 1272.42 1221.06 1236.87 1211.12 1188.92 1210.92 C 1185.99 1218.89 1180.32 1236.18 1179.43 1244.43 C 1172.38 1187.05 1073.89 1161.56 1026.37 1163.26 C 1024.09 1165.26 1024.68 1166.24 1024 1170.09 C 1025.29 1132.9 1024.12 1088.6 1024.14 1050.7 L 1024.19 815.513 C 1024.62 780.238 1023.65 744.305 1024.43 709.211 L 1024.04 703.473 z"/>
<path transform="translate(0,0)" fill="rgb(216,179,142)" d="M 1400.76 1092.71 C 1412.8 1089.66 1426.96 1089.06 1439.31 1088.64 C 1476.27 1087.38 1505.16 1101.72 1531.44 1127.22 C 1546.92 1142.24 1566.03 1170.64 1566.18 1193.22 C 1562 1234.76 1554.71 1272.74 1539.21 1311.78 C 1495.33 1301.13 1450.39 1292.01 1405.35 1288.7 C 1399.15 1288.25 1384.09 1286.83 1378.4 1287.63 C 1378.76 1279.15 1373.07 1267.73 1370.24 1259.58 C 1351.91 1206.84 1308.24 1176.59 1266.93 1142.93 C 1324.79 1158.22 1364.07 1136.82 1400.76 1092.71 z"/>
<path transform="translate(0,0)" fill="rgb(167,122,83)" d="M 1024.43 709.211 C 1025.6 713.636 1025.04 719.976 1025.08 724.736 C 1025.89 844.667 1023.9 964.963 1025.14 1084.84 C 1043.04 1085.81 1066.6 1088.54 1082.57 1095.06 C 1127.57 1113.4 1175.83 1154.1 1183.93 1204.42 C 1184.32 1206.82 1188.58 1204.65 1189.62 1208.65 L 1188.92 1210.92 C 1185.99 1218.89 1180.32 1236.18 1179.43 1244.43 C 1172.38 1187.05 1073.89 1161.56 1026.37 1163.26 C 1024.09 1165.26 1024.68 1166.24 1024 1170.09 C 1025.29 1132.9 1024.12 1088.6 1024.14 1050.7 L 1024.19 815.513 C 1024.62 780.238 1023.65 744.305 1024.43 709.211 z"/>
<path transform="translate(0,0)" fill="rgb(114,75,49)" d="M 1585.04 863.642 C 1599.81 869.652 1598.11 872.456 1608.45 881.862 C 1612.68 890.877 1612.95 908.496 1611.94 918.416 C 1609.41 943.108 1596.86 965.658 1579.95 983.42 C 1569.48 994.421 1556.89 1004.15 1551.14 1018.39 C 1549.48 1022.72 1550.01 1027.55 1549.85 1032.24 C 1549.41 1030.16 1548.99 1023.61 1548.5 1022.46 C 1543.23 1010.01 1537.85 998.323 1533.15 985.613 C 1536.83 984.526 1539.54 979.43 1542.86 975.516 C 1543.65 951.582 1542.91 938.874 1534.96 916.415 C 1542.06 902.429 1548.53 894.569 1561.79 886.19 C 1570.32 880.79 1573.5 878.79 1572.77 868.375 C 1578.81 865.117 1581.33 867.767 1585.04 863.642 z"/>
<path transform="translate(0,0)" fill="rgb(79,44,24)" d="M 1533.15 985.613 C 1528.49 972.161 1524.07 958.565 1517.11 945.548 C 1510.59 933.364 1495.71 918.734 1492.85 905.251 C 1491.97 901.12 1495.86 895.858 1498.68 892.969 C 1516.37 874.775 1534.29 861.817 1559.81 859.921 C 1564.13 860.05 1567.62 859.471 1570.87 861.635 C 1570.57 863.103 1570.26 864.569 1569.94 866.033 L 1572.77 868.375 C 1573.5 878.79 1570.32 880.79 1561.79 886.19 C 1548.53 894.569 1542.06 902.429 1534.96 916.415 C 1542.91 938.874 1543.65 951.582 1542.86 975.516 C 1539.54 979.43 1536.83 984.526 1533.15 985.613 z"/>
<path transform="translate(0,0)" fill="rgb(79,44,24)" d="M 1559.81 859.921 C 1570.64 858.244 1574.96 859.005 1585.04 863.642 C 1581.33 867.767 1578.81 865.117 1572.77 868.375 L 1569.94 866.033 C 1570.26 864.569 1570.57 863.103 1570.87 861.635 C 1567.62 859.471 1564.13 860.05 1559.81 859.921 z"/>
<path transform="translate(0,0)" fill="rgb(79,44,24)" d="M 1275.27 956.048 C 1314.57 948.763 1352.38 974.604 1359.87 1013.87 C 1367.36 1053.14 1341.71 1091.08 1302.48 1098.78 C 1262.97 1106.53 1224.68 1080.65 1217.14 1041.09 C 1209.6 1001.53 1235.67 963.387 1275.27 956.048 z"/>
<path transform="translate(0,0)" fill="rgb(249,228,171)" d="M 1268.6 984.642 C 1281.16 982.38 1293.16 990.771 1295.35 1003.35 C 1297.54 1015.92 1289.07 1027.87 1276.49 1029.98 C 1264.01 1032.08 1252.18 1023.7 1250.01 1011.23 C 1247.84 998.764 1256.15 986.886 1268.6 984.642 z"/>
<path transform="translate(0,0)" fill="rgb(79,44,24)" d="M 1272.03 860.438 C 1307.68 858.139 1347.36 870.915 1372.55 896.894 C 1379.49 904.054 1390.79 924.241 1380.87 932.036 C 1371.67 933.901 1361.3 925.932 1353.75 920.98 C 1324.32 900.119 1292.45 892.711 1256.67 897.337 C 1246 898.716 1232.75 899.416 1231.22 884.946 C 1228.73 861.371 1253.36 861.384 1272.03 860.438 z"/>
<path transform="translate(0,0)" fill="rgb(245,187,55)" d="M 596.84 1110.42 C 598.856 1101.34 597.413 1086.85 597.506 1077.1 C 597.66 1060.88 597.742 1041.93 601.294 1026.1 C 604.899 1010.04 609.987 983.517 615.754 968.428 C 639.332 906.738 683.656 841.173 737.704 802.506 C 789.209 765.658 855.563 746.182 918.094 760.946 C 938.881 765.854 955.08 775.156 973.706 785.523 C 989.637 794.39 1006.8 810.514 1023.28 815.383 C 1023.59 815.426 1023.89 815.469 1024.19 815.513 L 1024.14 1050.7 C 1024.12 1088.6 1025.29 1132.9 1024 1170.09 C 1024.39 1194.03 1024.41 1217.97 1024.05 1241.92 C 1013.1 1242.14 1004.04 1242.04 993.185 1240.42 C 963.177 1235.97 934.249 1222.4 907.393 1243.74 C 878.174 1266.96 889.294 1203.49 854.065 1234.68 C 854.153 1241.8 854.336 1248.46 856.277 1255.39 C 823.989 1264.12 801.224 1270.47 776.837 1295.29 C 750.24 1322.35 747.167 1345.97 739.989 1380.53 C 731.317 1353.39 724.546 1333.72 709.971 1308.58 C 684.416 1264.51 645.015 1230.97 624.917 1183.9 C 617.881 1167.43 613.323 1149.87 610.042 1132.38 C 608.004 1121.51 605.951 1116.19 596.84 1110.42 z"/>
<path transform="translate(0,0)" fill="rgb(79,44,24)" d="M 700.838 988.932 C 720.444 965.93 762.325 956.909 791.48 953.625 C 885.847 942.993 916.146 1053.51 895.434 1126.5 C 890.014 1145.6 886.719 1170.92 876.883 1188.36 C 841.346 1206.91 864.08 1141.89 866.006 1127.29 C 857.001 1122.4 851.551 1109.78 841.043 1106.26 C 832.859 1103.67 822.713 1102.98 814.131 1102.9 C 757.377 1102.32 711.472 1061.96 703.011 1005.24 C 701.194 998.411 701.19 995.955 700.838 988.932 z"/>
<path transform="translate(0,0)" fill="rgb(249,228,171)" d="M 703.011 1005.24 C 711.318 1009.46 726.234 1009.02 738.724 1013.98 L 739.369 1014.79 C 747.219 1024.86 752.427 1035.36 761.157 1045.39 C 784.992 1072.81 814.447 1071.77 847.64 1066.58 C 876.82 1077.71 871.441 1102.56 866.006 1127.29 C 857.001 1122.4 851.551 1109.78 841.043 1106.26 C 832.859 1103.67 822.713 1102.98 814.131 1102.9 C 757.377 1102.32 711.472 1061.96 703.011 1005.24 z"/>
<path transform="translate(0,0)" fill="rgb(249,228,171)" d="M 816.094 984.357 C 828.603 982.596 840.225 991.158 842.249 1003.63 C 844.274 1016.1 835.958 1027.9 823.534 1030.18 C 815.262 1031.71 806.812 1028.63 801.448 1022.16 C 796.083 1015.68 794.643 1006.8 797.682 998.96 C 800.721 991.116 807.764 985.53 816.094 984.357 z"/>
<path transform="translate(0,0)" fill="rgb(145,100,68)" d="M 1443.39 1527.61 C 1453.96 1533.32 1466.15 1542.22 1476.13 1549.19 C 1485.88 1556.12 1494.38 1564.3 1503.48 1571.01 C 1531.71 1591.82 1555.81 1615.44 1579.94 1640.82 C 1583.06 1644.11 1592.6 1654.1 1594.62 1657.49 L 1593.74 1658.59 C 1585.44 1668.97 1579.08 1680.72 1571.26 1691.27 C 1472.52 1824.36 1321.21 1922.62 1171.71 1989.99 C 1140.23 2004.19 1108.3 2017.39 1075.98 2029.56 C 1064.54 2033.88 1053.06 2038.1 1041.54 2042.2 C 1039.02 2043.1 1027.61 2046.92 1025.71 2048 L 1024.18 2048 L 1023.09 2044.98 C 1024.21 2037.4 1024.77 1970.46 1023.29 1965.87 C 1024.55 1960.61 1024.21 1905.13 1024.21 1894.9 L 1024.19 1698.19 L 1023.72 1697.03 C 1055.75 1697.32 1103.69 1693.3 1134.87 1687.08 C 1235.55 1667.37 1329.84 1623.24 1409.47 1558.57 C 1418.54 1551.05 1437.61 1536.26 1443.39 1527.61 z"/>
<path transform="translate(0,0)" fill="rgb(114,75,49)" d="M 1443.39 1527.61 C 1453.96 1533.32 1466.15 1542.22 1476.13 1549.19 C 1471.04 1556.11 1471.05 1559.87 1464.35 1567.45 C 1448.17 1585.74 1432.44 1605.58 1415.26 1622.93 C 1363.91 1674.48 1302.77 1715.24 1235.43 1742.81 C 1178.27 1766.51 1086.97 1788.27 1024.62 1785.91 C 1024.7 1774.21 1026.13 1702.63 1024.19 1698.19 L 1023.72 1697.03 C 1055.75 1697.32 1103.69 1693.3 1134.87 1687.08 C 1235.55 1667.37 1329.84 1623.24 1409.47 1558.57 C 1418.54 1551.05 1437.61 1536.26 1443.39 1527.61 z"/>
<path transform="translate(0,0)" fill="rgb(216,179,142)" d="M 1188.92 1210.92 C 1236.87 1211.12 1272.42 1221.06 1309.33 1255.22 C 1315.33 1260.77 1331.77 1280.56 1334.15 1287.98 C 1314.96 1288.17 1291.19 1290.89 1272.32 1293.5 C 1263.16 1300.01 1257.76 1308.94 1266.87 1318.21 C 1273.48 1324.95 1294.75 1321.25 1303.82 1320.6 C 1318.25 1319.6 1332.68 1318.71 1347.12 1317.93 C 1350.29 1331.62 1351.16 1347.19 1351.34 1361.18 C 1332.32 1357.33 1266.71 1343.99 1251.52 1353.04 C 1248.62 1354.76 1246.37 1357.25 1245.63 1360.6 C 1244.74 1364.62 1246.09 1370.07 1248.41 1373.41 C 1250.01 1375.7 1251.66 1376.86 1254.38 1377.65 C 1268.05 1381.62 1284.3 1381.75 1298.48 1383.46 C 1314.43 1385.39 1330.26 1388.29 1346.06 1391.14 C 1341.4 1406.99 1335.7 1419.18 1327.62 1433.43 C 1306.7 1424.99 1229.06 1394.87 1209.95 1400.94 C 1206.51 1402.03 1203.18 1404.24 1201.77 1407.71 C 1200.35 1411.19 1200.53 1416.02 1201.84 1419.5 C 1203.09 1422.81 1205.49 1425.63 1208.72 1427.13 C 1219.36 1432.1 1234.21 1434.05 1245.68 1437.19 C 1266.76 1442.97 1287.83 1449.81 1308.03 1458.16 C 1298.92 1466.39 1292.69 1471.37 1282.45 1478.09 C 1245.13 1502.59 1201.15 1502.47 1158.61 1492.29 C 1128.41 1485.06 1069.82 1468.64 1052.07 1441.97 C 1043.91 1429.71 1040.55 1380.33 1050.56 1368.03 C 1058.5 1358.07 1074.71 1354.23 1079.92 1341.9 C 1088.02 1322.76 1073.79 1311.2 1092.88 1295.19 C 1114.34 1277.2 1132.74 1294.76 1154.53 1281.8 C 1167.88 1273.86 1175.4 1259 1179.43 1244.43 C 1180.32 1236.18 1185.99 1218.89 1188.92 1210.92 z"/>
<path transform="translate(0,0)" fill="rgb(249,228,171)" d="M 739.989 1380.53 C 747.167 1345.97 750.24 1322.35 776.837 1295.29 C 801.224 1270.47 823.989 1264.12 856.277 1255.39 C 865.552 1280.29 881.262 1300.01 905.663 1310.06 C 938.384 1323.55 963.088 1327.4 986.708 1357.45 C 991.878 1364.02 998.634 1370.46 1001.64 1379.17 C 1007.02 1394.76 1004.11 1422.63 997.541 1437.44 C 983.902 1465.85 944.331 1475.25 917.287 1485.27 C 882.4 1498.19 845.378 1505.6 810.764 1488.38 C 762.108 1464.19 749.669 1430.26 739.989 1380.53 z"/>
<path transform="translate(0,0)" fill="rgb(245,187,55)" d="M 492.914 928.509 C 427.659 895.537 395.559 832.68 409.199 760.408 C 416.315 723.391 437.698 690.655 468.733 669.261 C 499.953 648.506 538.167 641.074 574.89 648.614 C 620.027 657.526 646.35 685.986 670.361 722.16 C 670.328 726.707 670.741 729.649 668.726 733.708 C 659.689 742.131 649.818 747.737 640.316 756.692 C 617.111 731.171 591.341 709.009 556.064 702.906 C 531.03 698.351 505.214 704.004 484.375 718.605 C 476.611 724.066 468.959 730.446 467.274 740.172 C 465.498 746.791 457.809 755.998 455.118 763.96 C 445.382 792.765 445.13 827.351 457.93 855.27 C 467.191 874.323 484.957 890.749 502.874 901.341 C 504.19 902.119 503.801 901.9 504.84 903.265 C 500.787 911.355 496.795 920.271 492.914 928.509 z"/>
<path transform="translate(0,0)" fill="rgb(225,156,23)" d="M 467.274 740.172 L 470.444 745.775 C 475.432 746.566 482.572 742.873 487.319 740.549 C 524.072 722.558 551.192 728.693 582.554 753.898 C 546.693 775.936 527.762 793.331 520.335 836.694 C 532.003 837.295 543.862 837.522 555.462 838.229 C 538.971 855.038 523.388 872.808 511.139 893.137 C 509.992 895.041 506.114 901.956 504.84 903.265 C 503.801 901.9 504.19 902.119 502.874 901.341 C 484.957 890.749 467.191 874.323 457.93 855.27 C 445.13 827.351 445.382 792.765 455.118 763.96 C 457.809 755.998 465.498 746.791 467.274 740.172 z"/>
<path transform="translate(0,0)" fill="rgb(145,100,68)" d="M 1530.8 1450.38 C 1550.12 1458.57 1594.99 1481.85 1611.62 1493.97 C 1614.19 1521.67 1614.25 1548.71 1613.71 1576.51 C 1613.31 1596.95 1617.6 1619.92 1603.21 1636.49 C 1593.51 1627.84 1573.09 1602.73 1562.19 1591.67 C 1537.53 1566.65 1517.41 1549.77 1490.65 1527.89 L 1493.64 1523.72 C 1506.11 1506.36 1516.67 1483.91 1527.29 1465.14 C 1529.53 1461.2 1528.42 1452.94 1530.8 1450.38 z"/>
<path transform="translate(0,0)" fill="rgb(145,100,68)" d="M 1570.39 1347.68 C 1583.31 1352.31 1598.85 1356.25 1611.03 1361.62 C 1611.28 1373.94 1611.85 1387.28 1611.22 1399.52 C 1609.99 1419.47 1611.47 1445.2 1611.28 1465.95 C 1594.62 1453.91 1566.79 1438.22 1548.24 1429.18 C 1547.7 1428.49 1543.74 1423.42 1544 1422.78 C 1551.89 1404.05 1562.22 1385.15 1564.31 1364.73 C 1566.31 1359.04 1568.34 1353.35 1570.39 1347.68 z"/>
<path transform="translate(0,0)" fill="rgb(114,75,49)" d="M 1518.89 1443.41 C 1522.88 1446.3 1526.48 1448.07 1530.8 1450.38 C 1528.42 1452.94 1529.53 1461.2 1527.29 1465.14 C 1516.67 1483.91 1506.11 1506.36 1493.64 1523.72 L 1490.65 1527.89 C 1486.14 1524.42 1466.09 1511.19 1464 1508.14 C 1461.52 1513.62 1518.28 1444.09 1518.89 1443.41 z"/>
<path transform="translate(0,0)" fill="rgb(145,100,68)" d="M 1581.29 1324.51 C 1595.46 1284.93 1604.9 1243.81 1609.41 1202.02 L 1610.76 1201.35 C 1611.63 1234.22 1610.58 1267.31 1611.57 1300.21 C 1611.88 1310.51 1610.44 1325.12 1611.3 1334.67 C 1600.91 1331.18 1592.09 1326.27 1581.29 1324.51 z"/>
<path transform="translate(0,0)" fill="rgb(114,75,49)" d="M 1531.14 1420.88 C 1543.23 1406.37 1556.09 1381.38 1564.31 1364.73 C 1562.22 1385.15 1551.89 1404.05 1544 1422.78 C 1543.74 1423.42 1547.7 1428.49 1548.24 1429.18 C 1542.88 1426.94 1536.46 1423.53 1531.14 1420.88 z"/>
<path transform="translate(0,0)" fill="rgb(254,254,254)" d="M 801.362 206.272 C 808.77 196.326 812.387 183.954 818.084 172.768 C 864.316 81.9843 962.118 29.9039 1063.18 47.5415 C 1127.94 59.3141 1184.69 97.9401 1219.39 153.864 C 1229.74 170.439 1234.81 184.787 1244.31 201.072 C 1247.17 205.965 1250.44 204.11 1256.85 201.782 C 1265.34 198.701 1273.63 194.773 1282.45 191.873 C 1309.05 183.349 1337.28 181.184 1364.88 185.554 C 1406.09 192.025 1448.84 215.868 1473.67 249.723 C 1501.18 282.88 1514.07 328.787 1509.97 371.5 C 1505.28 417.026 1482.8 458.859 1447.42 487.886 C 1411.53 517.436 1365.29 531.38 1319.05 526.605 C 1283.03 522.891 1239.29 503.203 1214.71 476.607 L 1229.3 456.115 C 1234.05 447.321 1267.46 385.481 1233.71 396.127 C 1227.62 401.906 1220.19 413.103 1214.85 420.295 C 1208.81 428.436 1202.34 436.254 1195.48 443.719 C 1151.43 491.758 1082.58 519.801 1017.76 517.921 C 953.921 516.068 891.595 485.876 848.381 439.18 C 841.497 431.741 818.499 395.722 810.932 395.436 C 806.934 395.285 804.04 396.467 801.197 399.193 C 796.031 410.084 812.583 445.866 818.557 455.855 C 822.14 462.38 828.805 471.127 833.326 477.501 C 805.562 501.035 779.101 518.089 742.476 524.754 C 696.878 533.035 649.865 522.666 611.98 495.972 C 573.464 469.36 547.245 428.399 539.205 382.278 C 530.462 331.765 544.853 291.66 573.319 250.991 C 585.159 233.337 612.201 212.795 631.029 203.15 C 671.449 182.444 718.367 176.962 761.846 190.986 C 775.556 195.408 787.62 201.789 801.362 206.272 z"/>
<path transform="translate(0,0)" fill="rgb(225,225,224)" d="M 1473.67 249.723 C 1501.18 282.88 1514.07 328.787 1509.97 371.5 C 1505.28 417.026 1482.8 458.859 1447.42 487.886 C 1411.53 517.436 1365.29 531.38 1319.05 526.605 C 1283.03 522.891 1239.29 503.203 1214.71 476.607 L 1229.3 456.115 C 1232.01 460.59 1239.19 462.506 1243.97 464.436 C 1264.44 472.696 1284.2 476.561 1306.35 477.151 C 1352.15 478.156 1396.51 461.128 1429.87 429.735 C 1467.4 394.038 1485.14 346.981 1480.62 295.318 C 1479.41 281.534 1472.93 261.943 1473.67 249.723 z"/>
<path transform="translate(0,0)" fill="rgb(225,225,224)" d="M 833.326 477.501 C 805.562 501.035 779.101 518.089 742.476 524.754 C 696.878 533.035 649.865 522.666 611.98 495.972 C 573.464 469.36 547.245 428.399 539.205 382.278 C 530.462 331.765 544.853 291.66 573.319 250.991 C 574.785 258.42 568.015 286.758 567.024 297.013 C 561.564 353.496 587.317 409.154 632.646 442.911 C 670.149 470.433 716.936 482.18 762.992 475.637 C 776.194 473.637 809.966 465.894 818.557 455.855 C 822.14 462.38 828.805 471.127 833.326 477.501 z"/>
<path transform="translate(0,0)" fill="rgb(254,254,254)" d="M 714.775 571.245 C 774.474 568.203 818.559 549.927 862.757 509.163 C 896.855 533.39 930.308 548.236 971.47 556.285 C 1043.17 570.506 1117.58 555.362 1178.02 514.246 L 1185 509.098 C 1229.88 547.335 1271.38 570.055 1332.53 571.166 C 1332.5 614.801 1333.05 663.969 1331.83 707.182 C 1299.77 692.996 1247.23 683.376 1212.73 675.877 C 1205.03 674.204 1179.39 671.11 1174.3 669.485 C 1145.59 666.702 1119.71 663.143 1090.5 661.687 C 961.867 655.277 839.345 665.583 716.882 705.977 L 714.775 571.245 z"/>
<path transform="translate(0,0)" fill="rgb(225,225,224)" d="M 1178.02 514.246 L 1185 509.098 C 1229.88 547.335 1271.38 570.055 1332.53 571.166 C 1332.5 614.801 1333.05 663.969 1331.83 707.182 C 1299.77 692.996 1247.23 683.376 1212.73 675.877 C 1205.03 674.204 1179.39 671.11 1174.3 669.485 C 1177.6 663.016 1182.26 521.653 1178.02 514.246 z"/>
<path transform="translate(0,0)" fill="rgb(216,179,142)" d="M 1023.95 1626.07 C 1072.32 1625.5 1125.38 1613.83 1161.38 1578.76 C 1170.08 1570.28 1178.98 1555.62 1180.81 1543.5 C 1179.65 1538.75 1178.26 1539.04 1175.26 1535.21 C 1178.34 1533.96 1194.15 1536.82 1199.99 1537.15 C 1257.18 1540.45 1307.98 1517.43 1346.27 1474.34 C 1365.85 1481.82 1388.04 1493.54 1406.3 1503.95 C 1294.83 1602.54 1172.08 1649.96 1024.1 1654.2 C 1023.99 1647.54 1023.54 1639.04 1024.64 1632.67 L 1027.66 1632.64 C 1027.93 1629.7 1026.43 1629.11 1023.95 1626.07 z"/>
<path transform="translate(0,0)" fill="rgb(249,228,171)" d="M 841.586 1536.8 C 858.621 1537.59 871.646 1537.92 888.679 1534.27 C 940.63 1523.13 967.691 1498.79 1022.99 1507.26 C 1025.5 1514.26 1023.94 1577.23 1024.09 1589.14 C 1024.08 1600.28 1024.52 1615.25 1023.95 1626.07 C 1026.43 1629.11 1027.93 1629.7 1027.66 1632.64 L 1024.64 1632.67 C 1023.54 1639.04 1023.99 1647.54 1024.1 1654.2 C 978.982 1654.56 918.351 1645.99 882.616 1617.8 C 855.038 1596.04 846.042 1570.25 841.586 1536.8 z"/>
<path transform="translate(0,0)" fill="rgb(216,179,142)" d="M 1022.99 1507.26 C 1034.63 1506.74 1054.56 1504.49 1064.98 1505.46 C 1074.35 1506.34 1095.06 1513.98 1105.01 1517.04 C 1126.01 1523.59 1147.3 1529.17 1168.82 1533.75 C 1154.34 1540.31 1148.31 1550.76 1136.38 1558.86 C 1105.83 1579.58 1060.15 1589.05 1024.09 1589.14 C 1023.94 1577.23 1025.5 1514.26 1022.99 1507.26 z"/>
<path transform="translate(0,0)" fill="rgb(216,179,142)" d="M 1387.54 1318.15 C 1442.06 1321.29 1475.31 1324.21 1528.64 1337.61 C 1521.65 1352.11 1514.14 1366.35 1506.1 1380.29 C 1501.48 1387.93 1496.99 1395.63 1492.62 1403.41 C 1457.67 1390.66 1424.98 1379.25 1388.92 1369.39 C 1391.29 1352.12 1389.34 1335.34 1387.54 1318.15 z"/>
<path transform="translate(0,0)" fill="rgb(216,179,142)" d="M 1383.99 1399.24 C 1398.3 1403.41 1413.38 1406.83 1427.62 1411.19 C 1443.7 1416.12 1460.01 1421.79 1475.97 1427.19 C 1463.41 1443.58 1454.61 1455.15 1440.34 1470.04 L 1426.11 1484.16 C 1415.73 1475.59 1377.02 1456.13 1363.11 1448.52 C 1374.24 1431.79 1378.27 1418.21 1383.99 1399.24 z"/>
</svg>